<svg width="104.000000" height="64.000000" viewBox="0 0 104 64" fill="none" xmlns="http://www.w3.org/2000/svg" xmlns:xlink="http://www.w3.org/1999/xlink">
	<desc>
			Created with Pixso.
	</desc>
	<defs/>
	<circle id="Ellipse 23" cx="2.000000" cy="2.000000" r="2.000000" fill="#ABB2BF" fill-opacity="1.000000"/>
	<circle id="Ellipse 21" cx="27.000000" cy="2.000000" r="2.000000" fill="#ABB2BF" fill-opacity="1.000000"/>
	<circle id="Ellipse 22" cx="52.000000" cy="2.000000" r="2.000000" fill="#ABB2BF" fill-opacity="1.000000"/>
	<circle id="Ellipse 20" cx="77.000000" cy="2.000000" r="2.000000" fill="#ABB2BF" fill-opacity="1.000000"/>
	<circle id="Ellipse 36" cx="102.000000" cy="2.000000" r="2.000000" fill="#ABB2BF" fill-opacity="1.000000"/>
	<circle id="Ellipse 25" cx="2.000000" cy="19.333252" r="2.000000" fill="#ABB2BF" fill-opacity="1.000000"/>
	<circle id="Ellipse 26" cx="27.000000" cy="19.333252" r="2.000000" fill="#ABB2BF" fill-opacity="1.000000"/>
	<circle id="Ellipse 24" cx="52.000000" cy="19.333252" r="2.000000" fill="#ABB2BF" fill-opacity="1.000000"/>
	<circle id="Ellipse 19" cx="77.000000" cy="19.333252" r="2.000000" fill="#ABB2BF" fill-opacity="1.000000"/>
	<circle id="Ellipse 36" cx="102.000000" cy="19.333252" r="2.000000" fill="#ABB2BF" fill-opacity="1.000000"/>
	<circle id="Ellipse 29" cx="2.000000" cy="36.666748" r="2.000000" fill="#ABB2BF" fill-opacity="1.000000"/>
	<circle id="Ellipse 30" cx="27.000000" cy="36.666748" r="2.000000" fill="#ABB2BF" fill-opacity="1.000000"/>
	<circle id="Ellipse 28" cx="52.000000" cy="36.666748" r="2.000000" fill="#ABB2BF" fill-opacity="1.000000"/>
	<circle id="Ellipse 19" cx="77.000000" cy="36.666748" r="2.000000" fill="#ABB2BF" fill-opacity="1.000000"/>
	<circle id="Ellipse 36" cx="102.000000" cy="36.666748" r="2.000000" fill="#ABB2BF" fill-opacity="1.000000"/>
	<circle id="Ellipse 33" cx="2.000000" cy="54.000000" r="2.000000" fill="#ABB2BF" fill-opacity="1.000000"/>
	<circle id="Ellipse 34" cx="27.000000" cy="54.000000" r="2.000000" fill="#ABB2BF" fill-opacity="1.000000"/>
	<circle id="Ellipse 32" cx="52.000000" cy="54.000000" r="2.000000" fill="#ABB2BF" fill-opacity="1.000000"/>
	<circle id="Ellipse 19" cx="77.000000" cy="54.000000" r="2.000000" fill="#ABB2BF" fill-opacity="1.000000"/>
	<circle id="Ellipse 36" cx="102.000000" cy="54.000000" r="2.000000" fill="#ABB2BF" fill-opacity="1.000000"/>
</svg>
