<svg width="156.000000" height="156.000000" viewBox="0 0 156 156" fill="none" xmlns="http://www.w3.org/2000/svg" xmlns:xlink="http://www.w3.org/1999/xlink">
	<desc>
			Created with Pixso.
	</desc>
	<defs/>
	<rect id="Logo" width="155.000000" height="155.000000" transform="translate(0.000000 1.000000)" fill="#FFFFFF" fill-opacity="0"/>
	<mask id="mask_8_1224" fill="white">
		<path id="Union" d="M0 39.75L77.5 39.75L77.5 78.5L38.75 78.5L38.75 117.25L77.5 117.25L77.5 156L0 156L0 39.75Z" clip-rule="evenodd" fill="" fill-opacity="1.000000" fill-rule="evenodd"/>
	</mask>
	<path id="Union" d="M39.75 78.5L77.5 78.5L77.5 39.75L0 39.75L0 156L77.5 156L77.5 117.25L38.75 117.25L38.75 78.5L39.75 78.5ZM76.5 118.25L37.75 118.25L37.75 77.5L76.5 77.5L76.5 40.75L1 40.75L1 155L76.5 155L76.5 118.25Z" clip-rule="evenodd" fill="#C778DD" fill-opacity="1.000000" fill-rule="evenodd"/>
	<mask id="mask_8_1230" fill="white">
		<path id="Union" d="M77.5 1L155 1L155 117.25L77.5 117.25L77.5 78.5L116.25 78.5L116.25 39.75L77.5 39.75L77.5 1Z" clip-rule="evenodd" fill="" fill-opacity="1.000000" fill-rule="evenodd"/>
	</mask>
	<path id="Union" d="M156 0L76.5 0L76.5 40.75L115.25 40.75L115.25 77.5L76.5 77.5L76.5 118.25L156 118.25L156 0ZM116.25 77.5L116.25 78.5L77.5 78.5L77.5 117.25L155 117.25L155 1L77.5 1L77.5 39.75L116.25 39.75L116.25 77.5Z" clip-rule="evenodd" fill="#C778DD" fill-opacity="1.000000" fill-rule="evenodd"/>
</svg>
