<svg width="53.000000" height="53.000000" viewBox="0 0 53 53" fill="none" xmlns="http://www.w3.org/2000/svg" xmlns:xlink="http://www.w3.org/1999/xlink">
	<desc>
			Created with Pixso.
	</desc>
	<defs/>
	<rect width="52.000000" height="52.000000" transform="translate(0.000000 1.000000)" fill="#FFFFFF" fill-opacity="0"/>
	<mask id="mask_64_1294" fill="white">
		<path d="M0 14L26 14L26 27L13 27L13 40L26 40L26 53L0 53L0 14Z" clip-rule="evenodd" fill="" fill-opacity="1.000000" fill-rule="evenodd"/>
	</mask>
	<path d="M14 27L26 27L26 14L0 14L0 53L26 53L26 40L13 40L13 27L14 27ZM25 41L12 41L12 26L25 26L25 15L1 15L1 52L25 52L25 41Z" clip-rule="evenodd" fill="#C778DD" fill-opacity="1.000000" fill-rule="evenodd"/>
	<mask id="mask_64_1295" fill="white">
		<path d="M26 1L52 1L52 40L26 40L26 27L39 27L39 14L26 14L26 1Z" clip-rule="evenodd" fill="" fill-opacity="1.000000" fill-rule="evenodd"/>
	</mask>
	<path d="M53 0L25 0L25 15L38 15L38 26L25 26L25 41L53 41L53 0ZM39 26L39 27L26 27L26 40L52 40L52 1L26 1L26 14L39 14L39 26Z" clip-rule="evenodd" fill="#C778DD" fill-opacity="1.000000" fill-rule="evenodd"/>
</svg>
